# xmcd CD database file
#
# Track frame offsets:
#	150
#	44917
#	71608
#	110589
#	139967
#	167405
#	189840
#	233978
#	257713
#
# Disc length: 3925 seconds
#
# Revision: 0
# Processed by: cddbd v1.5.2PL0 Copyright (c) Steve Scherf et al.
# Submitted via: CDex 1.51
#
DISCID=810f5309
DTITLE=Joanna Connor Band - Live 24 (Kingston Mines, 12/24/10)
DYEAR=2010
DGENRE=Blues
TTITLE0=Statesboro Blues
TTITLE1=Rock and Roll Gypsy
TTITLE2=Stormy Monday
TTITLE3=Little Wing
TTITLE4=Born Under  A Bad Sign
TTITLE5=Here I Am
TTITLE6=Walkin' Blues
TTITLE7=Howlin'
TTITLE8=Boogie Woogie Nighthawk
EXTD=YEAR: 2010
EXTT0=
EXTT1=
EXTT2=
EXTT3=
EXTT4=
EXTT5=
EXTT6=
EXTT7=
EXTT8=
PLAYORDER=
